<svg width="411" height="731" viewBox="0 0 411 731" fill="none" xmlns="http://www.w3.org/2000/svg">
<g clip-path="url(#clip0_1814_1674)">
<rect width="411" height="731" fill="white"/>
<path d="M196.729 378.889C286.469 321.661 359.702 242.66 410.976 177.208V172.996C359.752 238.804 285.926 319.009 195.174 376.884C72.8388 454.882 21.1955 579.011 -0.0244141 657.366V667.862C19.3449 590.822 69.7545 459.874 196.729 378.889Z" fill="white"/>
<path d="M72.8169 234.719C3.12821 121.968 129.902 31.26 202 0H0V453C53.3093 427.22 142.506 347.471 72.8169 234.719Z" fill="#54B8FF" fill-opacity="0.47"/>
<path d="M342.949 358.055C265.648 113.267 333.443 20.9076 411.282 0V731H148C245.192 708.68 420.25 602.842 342.949 358.055Z" fill="#54B8FF" fill-opacity="0.47"/>
<path opacity="0.37" d="M0 731.342C0 731.342 16.9005 511.635 167.928 478.911C318.955 446.188 411 261 411 261V731.342H0Z" fill="#54B8FF"/>
</g>
<defs>
<clipPath id="clip0_1814_1674">
<rect width="411" height="731" fill="white"/>
</clipPath>
</defs>
</svg>
