<svg width="360" height="800" viewBox="0 0 360 800" fill="none" xmlns="http://www.w3.org/2000/svg">
<rect width="360" height="800" fill="#FD9A08"/>
<path d="M244.058 302.815L220.396 289.53C219.887 289.245 219.242 289.454 218.998 289.984L207.492 314.982L192.538 339.016C192.242 339.491 192.394 340.116 192.874 340.403L204.381 347.278C205.069 347.689 205.957 347.518 206.443 346.88C217.819 331.948 230.247 317.849 243.632 304.689L244.23 304.101C244.615 303.723 244.529 303.08 244.058 302.815Z" stroke="black" stroke-width="2"/>
<path d="M114.803 301.195L135.93 284.695C136.368 284.353 137.012 284.541 137.198 285.065L137.493 285.898C143.919 304.051 151.665 321.71 160.669 338.733C160.857 339.089 160.747 339.53 160.414 339.755L149.061 347.439C148.603 347.749 147.98 347.628 147.671 347.17L132.202 324.236L114.643 302.614C114.29 302.179 114.362 301.54 114.803 301.195Z" stroke="black" stroke-width="2"/>
<path d="M166.508 293.11L187.4 291.059C187.712 291.028 187.974 291.289 187.947 291.601L186 313.5L185.07 334.514C185.058 334.784 184.833 334.996 184.562 334.992L169.956 334.738C169.693 334.734 169.478 334.525 169.466 334.262L168.5 314L166.061 293.667C166.027 293.388 166.229 293.137 166.508 293.11Z" stroke="black" stroke-width="2"/>
<path d="M122.996 375.602C122.833 377.441 122.41 378.971 121.727 380.191C121.059 381.396 120.237 382.364 119.261 383.097C118.284 383.813 117.202 384.317 116.014 384.61C114.842 384.903 113.67 385.05 112.498 385.05C111.277 385.05 110.097 384.879 108.958 384.537C107.835 384.212 106.842 383.715 105.979 383.048C105.117 382.381 104.425 381.542 103.904 380.533C103.4 379.524 103.147 378.344 103.147 376.993C103.147 375.951 103.302 375.081 103.611 374.381C103.937 373.681 104.336 373.119 104.808 372.696C105.28 372.273 105.784 371.98 106.321 371.817C106.858 371.638 107.355 371.549 107.811 371.549C108.283 371.549 108.771 371.622 109.275 371.769C109.78 371.915 110.244 372.159 110.667 372.501C111.09 372.843 111.432 373.307 111.692 373.893C111.969 374.462 112.107 375.178 112.107 376.041C112.107 376.057 112.091 376.212 112.059 376.505C112.042 376.782 111.953 377.107 111.79 377.481C111.627 377.84 111.375 378.198 111.033 378.556C110.708 378.897 110.228 379.142 109.593 379.288C110.049 379.858 110.577 380.289 111.18 380.582C111.798 380.859 112.319 380.997 112.742 380.997C113.165 380.997 113.646 380.924 114.183 380.777C114.736 380.631 115.249 380.387 115.721 380.045C116.209 379.687 116.616 379.223 116.941 378.653C117.283 378.067 117.454 377.335 117.454 376.456C117.454 375.431 117.275 374.519 116.917 373.722C116.575 372.924 116.128 372.224 115.574 371.622C115.037 371.004 114.427 370.466 113.743 370.011C113.076 369.539 112.425 369.116 111.79 368.741C111.367 368.497 110.862 368.212 110.276 367.887C109.69 367.545 109.08 367.146 108.445 366.69C107.811 366.218 107.184 365.689 106.565 365.104C105.947 364.501 105.385 363.826 104.881 363.077C104.393 362.312 103.994 361.466 103.685 360.538C103.392 359.61 103.245 358.585 103.245 357.462C103.245 355.785 103.538 354.321 104.124 353.067C104.71 351.798 105.467 350.74 106.395 349.894C107.339 349.047 108.405 348.412 109.593 347.989C110.781 347.566 111.985 347.354 113.206 347.354C114.427 347.354 115.59 347.525 116.697 347.867C117.804 348.193 118.772 348.673 119.603 349.308C120.449 349.926 121.116 350.675 121.604 351.554C122.109 352.416 122.361 353.385 122.361 354.459C122.361 355.549 122.182 356.412 121.824 357.047C121.466 357.682 121.035 358.162 120.53 358.487C120.042 358.813 119.537 359.024 119.017 359.122C118.512 359.203 118.105 359.244 117.796 359.244C117.405 359.244 116.998 359.171 116.575 359.024C116.152 358.878 115.761 358.658 115.403 358.365C115.062 358.072 114.777 357.714 114.549 357.291C114.321 356.868 114.207 356.371 114.207 355.802C114.223 355.444 114.264 355.086 114.329 354.728C114.394 354.418 114.492 354.085 114.622 353.727C114.752 353.368 114.948 353.027 115.208 352.701C114.948 352.473 114.695 352.294 114.451 352.164C114.207 352.034 113.979 351.936 113.768 351.871C113.523 351.806 113.287 351.765 113.06 351.749C112.604 351.749 112.14 351.83 111.668 351.993C111.212 352.156 110.789 352.4 110.398 352.726C110.024 353.051 109.715 353.466 109.471 353.971C109.227 354.459 109.104 355.037 109.104 355.704C109.104 356.485 109.227 357.193 109.471 357.828C109.715 358.447 110.097 359.049 110.618 359.635C111.139 360.221 111.798 360.815 112.596 361.417C113.41 362.019 114.378 362.678 115.501 363.395C116.819 364.225 117.951 365.055 118.895 365.885C119.855 366.715 120.636 367.569 121.238 368.448C121.857 369.327 122.312 370.255 122.605 371.231C122.898 372.192 123.045 373.233 123.045 374.356C123.045 374.552 123.045 374.755 123.045 374.967C123.045 375.162 123.029 375.374 122.996 375.602ZM137.669 384.244C137.701 383.593 137.734 382.975 137.767 382.389C137.815 381.786 137.864 381.209 137.913 380.655C137.36 381.632 136.766 382.381 136.131 382.901C135.512 383.422 134.935 383.813 134.397 384.073C133.763 384.366 133.136 384.545 132.518 384.61C131.313 384.61 130.263 384.309 129.368 383.707C128.473 383.105 127.732 382.25 127.146 381.144C126.561 380.037 126.121 378.71 125.828 377.164C125.551 375.602 125.413 373.86 125.413 371.939C125.413 369.254 125.494 366.65 125.657 364.127C125.836 361.604 126.121 359.13 126.512 356.705L132.713 357.389C132.322 359.326 132.021 361.059 131.81 362.589C131.614 364.103 131.468 365.396 131.37 366.471C131.256 367.724 131.191 368.814 131.175 369.742C131.175 371.288 131.224 372.639 131.321 373.795C131.419 374.934 131.59 375.886 131.834 376.651C132.094 377.4 132.444 377.962 132.884 378.336C133.323 378.71 133.885 378.897 134.568 378.897C135.04 378.816 135.504 378.491 135.96 377.921C136.155 377.677 136.359 377.368 136.57 376.993C136.782 376.603 136.993 376.131 137.205 375.577C137.417 375.024 137.62 374.373 137.815 373.624C138.011 372.875 138.198 372.005 138.377 371.012C138.41 370.051 138.426 369.099 138.426 368.155C138.426 367.195 138.426 366.161 138.426 365.055C138.426 363.883 138.426 362.605 138.426 361.222C138.426 359.838 138.41 358.284 138.377 356.559L143.919 356.656C143.838 357.893 143.772 359.041 143.724 360.099C143.675 361.14 143.634 362.125 143.602 363.053C143.585 363.964 143.569 364.827 143.553 365.641C143.536 366.454 143.528 367.244 143.528 368.009C143.528 369.181 143.536 370.328 143.553 371.451C143.585 372.574 143.626 373.771 143.675 375.04C143.724 376.293 143.772 377.677 143.821 379.19C143.886 380.688 143.951 382.405 144.017 384.342L137.669 384.244ZM163.401 371.256C163.401 372.232 163.393 373.087 163.377 373.819C163.361 374.535 163.336 375.195 163.304 375.797C163.287 376.383 163.255 376.944 163.206 377.481C163.174 378.002 163.133 378.564 163.084 379.166C163.035 379.752 162.978 380.419 162.913 381.168C162.848 381.9 162.775 382.763 162.693 383.756L157.2 383.805C157.428 381.184 157.591 378.67 157.688 376.261C157.802 373.836 157.859 371.435 157.859 369.059C157.859 366.796 157.648 365.144 157.225 364.103C156.818 363.061 156.191 362.54 155.345 362.54C155.019 362.638 154.702 362.857 154.393 363.199C154.116 363.492 153.831 363.94 153.538 364.542C153.261 365.144 153.017 365.982 152.806 367.057C152.773 367.854 152.757 368.644 152.757 369.425C152.757 370.19 152.757 370.947 152.757 371.695C152.757 372.574 152.757 373.469 152.757 374.381C152.773 375.292 152.781 376.269 152.781 377.311C152.798 378.352 152.814 379.475 152.83 380.68C152.846 381.868 152.871 383.178 152.903 384.61L147.337 384.488C147.451 382.617 147.549 380.948 147.63 379.483C147.711 378.019 147.776 376.668 147.825 375.431C147.89 374.194 147.931 373.022 147.947 371.915C147.98 370.808 147.996 369.669 147.996 368.497C147.996 367.716 147.988 366.918 147.972 366.104C147.972 365.274 147.955 364.387 147.923 363.443C147.907 362.499 147.882 361.49 147.85 360.416C147.817 359.326 147.785 358.137 147.752 356.852L153.294 356.949L153.147 359.244C153.619 358.316 154.116 357.6 154.637 357.096C155.158 356.591 155.646 356.225 156.102 355.997C156.557 355.769 156.94 355.639 157.249 355.606C157.575 355.574 157.778 355.558 157.859 355.558C158.348 355.558 158.812 355.623 159.251 355.753C159.707 355.883 160.13 356.127 160.521 356.485C160.927 356.843 161.294 357.34 161.619 357.975C161.961 358.609 162.254 359.431 162.498 360.44C162.938 359.203 163.483 358.251 164.134 357.584C164.785 356.917 165.42 356.437 166.038 356.144C166.673 355.834 167.226 355.663 167.698 355.631C168.187 355.582 168.471 355.558 168.553 355.558C169.594 355.558 170.473 355.875 171.189 356.51C171.906 357.145 172.475 358.113 172.898 359.415C173.322 360.717 173.623 362.353 173.802 364.322C173.997 366.292 174.095 368.603 174.095 371.256C174.095 372.135 174.054 373.152 173.973 374.308C173.891 375.463 173.785 376.66 173.655 377.896C173.525 379.117 173.387 380.33 173.24 381.534C173.094 382.739 172.964 383.813 172.85 384.757L167.356 384.562C167.633 382.82 167.845 381.168 167.991 379.605C168.154 378.027 168.276 376.627 168.357 375.406C168.439 373.99 168.488 372.672 168.504 371.451C168.504 369.905 168.463 368.57 168.382 367.447C168.317 366.324 168.187 365.405 167.991 364.688C167.796 363.956 167.527 363.419 167.186 363.077C166.844 362.719 166.412 362.54 165.892 362.54C165.55 362.638 165.224 362.825 164.915 363.102C164.638 363.329 164.345 363.679 164.036 364.151C163.743 364.607 163.483 365.226 163.255 366.007C163.353 367.504 163.401 369.254 163.401 371.256ZM193.284 371.256C193.284 372.232 193.276 373.087 193.26 373.819C193.243 374.535 193.219 375.195 193.187 375.797C193.17 376.383 193.138 376.944 193.089 377.481C193.056 378.002 193.016 378.564 192.967 379.166C192.918 379.752 192.861 380.419 192.796 381.168C192.731 381.9 192.658 382.763 192.576 383.756L187.083 383.805C187.311 381.184 187.474 378.67 187.571 376.261C187.685 373.836 187.742 371.435 187.742 369.059C187.742 366.796 187.531 365.144 187.107 364.103C186.701 363.061 186.074 362.54 185.228 362.54C184.902 362.638 184.585 362.857 184.275 363.199C183.999 363.492 183.714 363.94 183.421 364.542C183.144 365.144 182.9 365.982 182.688 367.057C182.656 367.854 182.64 368.644 182.64 369.425C182.64 370.19 182.64 370.947 182.64 371.695C182.64 372.574 182.64 373.469 182.64 374.381C182.656 375.292 182.664 376.269 182.664 377.311C182.68 378.352 182.697 379.475 182.713 380.68C182.729 381.868 182.754 383.178 182.786 384.61L177.22 384.488C177.334 382.617 177.431 380.948 177.513 379.483C177.594 378.019 177.659 376.668 177.708 375.431C177.773 374.194 177.814 373.022 177.83 371.915C177.863 370.808 177.879 369.669 177.879 368.497C177.879 367.716 177.871 366.918 177.854 366.104C177.854 365.274 177.838 364.387 177.806 363.443C177.789 362.499 177.765 361.49 177.732 360.416C177.7 359.326 177.667 358.137 177.635 356.852L183.177 356.949L183.03 359.244C183.502 358.316 183.999 357.6 184.52 357.096C185.04 356.591 185.529 356.225 185.984 355.997C186.44 355.769 186.823 355.639 187.132 355.606C187.457 355.574 187.661 355.558 187.742 355.558C188.23 355.558 188.694 355.623 189.134 355.753C189.59 355.883 190.013 356.127 190.403 356.485C190.81 356.843 191.176 357.34 191.502 357.975C191.844 358.609 192.137 359.431 192.381 360.44C192.82 359.203 193.366 358.251 194.017 357.584C194.668 356.917 195.302 356.437 195.921 356.144C196.556 355.834 197.109 355.663 197.581 355.631C198.069 355.582 198.354 355.558 198.436 355.558C199.477 355.558 200.356 355.875 201.072 356.51C201.788 357.145 202.358 358.113 202.781 359.415C203.204 360.717 203.506 362.353 203.685 364.322C203.88 366.292 203.978 368.603 203.978 371.256C203.978 372.135 203.937 373.152 203.855 374.308C203.774 375.463 203.668 376.66 203.538 377.896C203.408 379.117 203.27 380.33 203.123 381.534C202.977 382.739 202.846 383.813 202.732 384.757L197.239 384.562C197.516 382.82 197.728 381.168 197.874 379.605C198.037 378.027 198.159 376.627 198.24 375.406C198.322 373.99 198.37 372.672 198.387 371.451C198.387 369.905 198.346 368.57 198.265 367.447C198.2 366.324 198.069 365.405 197.874 364.688C197.679 363.956 197.41 363.419 197.068 363.077C196.727 362.719 196.295 362.54 195.774 362.54C195.433 362.638 195.107 362.825 194.798 363.102C194.521 363.329 194.228 363.679 193.919 364.151C193.626 364.607 193.366 365.226 193.138 366.007C193.235 367.504 193.284 369.254 193.284 371.256ZM224.705 378.751C224.705 379.711 224.485 380.615 224.046 381.461C223.606 382.307 223.012 383.04 222.264 383.658C221.515 384.277 220.636 384.765 219.627 385.123C218.618 385.481 217.544 385.66 216.404 385.66C215.639 385.66 214.866 385.554 214.085 385.343C213.304 385.131 212.555 384.781 211.839 384.293C211.123 383.805 210.447 383.162 209.812 382.364C209.178 381.567 208.624 380.59 208.152 379.435C207.697 378.279 207.33 376.928 207.054 375.382C206.793 373.819 206.663 372.029 206.663 370.011C206.663 368.106 206.793 366.422 207.054 364.957C207.33 363.492 207.697 362.215 208.152 361.124C208.624 360.034 209.17 359.122 209.788 358.39C210.407 357.641 211.066 357.039 211.766 356.583C212.482 356.111 213.214 355.777 213.963 355.582C214.728 355.387 215.477 355.289 216.209 355.289C217.299 355.289 218.333 355.468 219.31 355.826C220.286 356.168 221.141 356.681 221.873 357.364C222.605 358.048 223.183 358.894 223.606 359.903C224.046 360.896 224.266 362.044 224.266 363.346C224.266 364.518 224.021 365.706 223.533 366.91C223.061 368.098 222.353 369.229 221.409 370.304C220.465 371.362 219.293 372.33 217.894 373.209C216.51 374.072 214.915 374.755 213.108 375.26C213.206 376.269 213.344 377.188 213.523 378.019C213.719 378.849 213.955 379.557 214.231 380.143C214.524 380.729 214.858 381.184 215.232 381.51C215.623 381.835 216.071 381.998 216.575 381.998C216.901 381.982 217.21 381.925 217.503 381.827C217.763 381.746 218.024 381.616 218.284 381.437C218.561 381.257 218.789 380.997 218.968 380.655C218.545 380.46 218.219 380.208 217.991 379.898C217.763 379.589 217.592 379.296 217.479 379.02C217.348 378.694 217.275 378.352 217.259 377.994C217.259 377.213 217.413 376.578 217.723 376.09C218.032 375.602 218.398 375.219 218.821 374.942C219.244 374.666 219.676 374.479 220.115 374.381C220.555 374.267 220.905 374.21 221.165 374.21C221.442 374.21 221.775 374.267 222.166 374.381C222.573 374.495 222.964 374.715 223.338 375.04C223.712 375.366 224.03 375.829 224.29 376.432C224.567 377.018 224.705 377.791 224.705 378.751ZM218.675 363.395C218.675 362.809 218.618 362.255 218.504 361.734C218.406 361.197 218.252 360.733 218.04 360.343C217.845 359.952 217.592 359.643 217.283 359.415C216.99 359.171 216.648 359.049 216.258 359.049C215.59 359.049 215.045 359.358 214.622 359.977C214.199 360.579 213.857 361.384 213.597 362.394C213.336 363.403 213.157 364.566 213.06 365.885C212.962 367.203 212.913 368.578 212.913 370.011V371.793C213.743 371.354 214.508 370.833 215.208 370.23C215.924 369.628 216.535 368.969 217.039 368.253C217.56 367.521 217.959 366.747 218.235 365.934C218.528 365.12 218.675 364.273 218.675 363.395ZM233.592 385.001L227.073 385.489C227.334 382.576 227.521 379.768 227.635 377.066C227.765 374.348 227.83 371.63 227.83 368.912C227.83 366.992 227.798 365.071 227.732 363.15C227.684 361.214 227.586 359.228 227.439 357.193L232.933 356.9C232.9 357.258 232.876 357.608 232.859 357.95C232.843 358.292 232.835 358.626 232.835 358.951C233.405 358.072 234.023 357.389 234.69 356.9C235.374 356.396 236.009 356.03 236.595 355.802C237.262 355.525 237.938 355.354 238.621 355.289C239.809 355.289 240.826 355.476 241.673 355.851C242.519 356.209 243.211 356.681 243.748 357.267C244.285 357.836 244.676 358.479 244.92 359.195C245.164 359.895 245.286 360.579 245.286 361.246C245.286 361.93 245.213 362.621 245.066 363.321C244.92 364.021 244.668 364.656 244.31 365.226C243.968 365.779 243.504 366.235 242.918 366.593C242.348 366.935 241.64 367.105 240.794 367.105C239.948 367.105 239.28 366.951 238.792 366.642C238.304 366.332 237.929 365.966 237.669 365.543C237.425 365.104 237.262 364.656 237.181 364.2C237.116 363.728 237.083 363.329 237.083 363.004C237.083 362.776 237.124 362.524 237.205 362.247C237.286 361.954 237.409 361.661 237.571 361.368C237.734 361.075 237.938 360.79 238.182 360.514C238.426 360.221 238.711 359.952 239.036 359.708C238.938 359.675 238.833 359.651 238.719 359.635C238.621 359.618 238.523 359.61 238.426 359.61C237.612 359.61 236.888 359.871 236.253 360.392C235.618 360.896 235.065 361.604 234.593 362.516C234.137 363.427 233.755 364.501 233.445 365.738C233.152 366.975 232.933 368.326 232.786 369.791C232.868 372.314 232.981 374.812 233.128 377.286C233.274 379.76 233.429 382.332 233.592 385.001ZM112.4 391.891C112.27 393.567 112.164 395.219 112.083 396.847C112.002 398.458 111.92 400.077 111.839 401.705C112.555 401.673 113.263 401.648 113.963 401.632C114.663 401.599 115.379 401.559 116.111 401.51L116.209 407.76C115.428 407.63 114.655 407.524 113.89 407.442C113.125 407.361 112.376 407.296 111.644 407.247C111.595 408.631 111.562 409.998 111.546 411.349C111.546 412.7 111.546 414.067 111.546 415.45C111.546 417.924 111.57 420.382 111.619 422.823C111.684 425.265 111.782 427.722 111.912 430.196L105.54 430.099C105.752 426.274 105.923 422.457 106.053 418.648C106.199 414.824 106.297 410.974 106.346 407.101C105.662 407.133 104.979 407.174 104.295 407.223C103.611 407.255 102.911 407.296 102.195 407.345L102.391 401.559C103.058 401.607 103.717 401.648 104.368 401.681C105.035 401.697 105.695 401.721 106.346 401.754C106.346 400.126 106.329 398.507 106.297 396.896C106.264 395.268 106.232 393.632 106.199 391.988L112.4 391.891ZM125.047 394.747C125.047 395.268 124.949 395.764 124.754 396.236C124.559 396.692 124.29 397.091 123.948 397.433C123.606 397.774 123.2 398.051 122.728 398.263C122.272 398.458 121.784 398.556 121.263 398.556C120.742 398.556 120.245 398.458 119.773 398.263C119.318 398.051 118.919 397.774 118.577 397.433C118.235 397.091 117.959 396.692 117.747 396.236C117.552 395.764 117.454 395.268 117.454 394.747C117.454 394.226 117.552 393.738 117.747 393.282C117.959 392.81 118.235 392.403 118.577 392.062C118.919 391.72 119.318 391.451 119.773 391.256C120.245 391.044 120.742 390.938 121.263 390.938C121.784 390.938 122.272 391.044 122.728 391.256C123.2 391.451 123.606 391.72 123.948 392.062C124.29 392.403 124.559 392.81 124.754 393.282C124.949 393.738 125.047 394.226 125.047 394.747ZM125.047 402.145C124.917 403.43 124.803 404.822 124.705 406.319C124.624 407.8 124.55 409.322 124.485 410.885C124.437 412.447 124.396 414.018 124.363 415.597C124.331 417.175 124.306 418.681 124.29 420.113C124.274 421.546 124.257 422.888 124.241 424.142C124.241 425.379 124.241 426.445 124.241 427.34V430.099L118.699 430.294C118.732 429.171 118.748 428.08 118.748 427.022C118.748 425.965 118.748 424.907 118.748 423.849C118.748 422.009 118.732 420.219 118.699 418.478C118.667 416.72 118.61 414.962 118.528 413.204C118.463 411.446 118.374 409.664 118.26 407.857C118.146 406.051 118.007 404.179 117.845 402.242L125.047 402.145ZM144.065 416.256C144.065 417.232 144.057 418.087 144.041 418.819C144.025 419.535 144 420.195 143.968 420.797C143.951 421.383 143.919 421.944 143.87 422.481C143.838 423.002 143.797 423.564 143.748 424.166C143.699 424.752 143.642 425.419 143.577 426.168C143.512 426.9 143.439 427.763 143.357 428.756L137.864 428.805C138.092 426.184 138.255 423.67 138.353 421.261C138.466 418.836 138.523 416.435 138.523 414.059C138.523 411.796 138.312 410.144 137.889 409.103C137.482 408.061 136.855 407.54 136.009 407.54C135.683 407.638 135.366 407.857 135.057 408.199C134.78 408.492 134.495 408.94 134.202 409.542C133.925 410.144 133.681 410.982 133.47 412.057C133.437 412.854 133.421 413.644 133.421 414.425C133.421 415.19 133.421 415.947 133.421 416.695C133.421 417.574 133.421 418.469 133.421 419.381C133.437 420.292 133.445 421.269 133.445 422.311C133.462 423.352 133.478 424.475 133.494 425.68C133.51 426.868 133.535 428.178 133.567 429.61L128.001 429.488C128.115 427.617 128.213 425.948 128.294 424.483C128.375 423.019 128.44 421.668 128.489 420.431C128.554 419.194 128.595 418.022 128.611 416.915C128.644 415.808 128.66 414.669 128.66 413.497C128.66 412.716 128.652 411.918 128.636 411.104C128.636 410.274 128.619 409.387 128.587 408.443C128.571 407.499 128.546 406.49 128.514 405.416C128.481 404.326 128.449 403.137 128.416 401.852L133.958 401.949L133.812 404.244C134.284 403.316 134.78 402.6 135.301 402.096C135.822 401.591 136.31 401.225 136.766 400.997C137.221 400.769 137.604 400.639 137.913 400.606C138.239 400.574 138.442 400.558 138.523 400.558C139.012 400.558 139.476 400.623 139.915 400.753C140.371 400.883 140.794 401.127 141.185 401.485C141.591 401.843 141.958 402.34 142.283 402.975C142.625 403.609 142.918 404.431 143.162 405.44C143.602 404.203 144.147 403.251 144.798 402.584C145.449 401.917 146.084 401.437 146.702 401.144C147.337 400.834 147.89 400.663 148.362 400.631C148.851 400.582 149.135 400.558 149.217 400.558C150.258 400.558 151.137 400.875 151.854 401.51C152.57 402.145 153.139 403.113 153.562 404.415C153.986 405.717 154.287 407.353 154.466 409.322C154.661 411.292 154.759 413.603 154.759 416.256C154.759 417.135 154.718 418.152 154.637 419.308C154.555 420.463 154.45 421.66 154.319 422.896C154.189 424.117 154.051 425.33 153.904 426.534C153.758 427.739 153.628 428.813 153.514 429.757L148.021 429.562C148.297 427.82 148.509 426.168 148.655 424.605C148.818 423.027 148.94 421.627 149.021 420.406C149.103 418.99 149.152 417.672 149.168 416.451C149.168 414.905 149.127 413.57 149.046 412.447C148.981 411.324 148.851 410.405 148.655 409.688C148.46 408.956 148.191 408.419 147.85 408.077C147.508 407.719 147.076 407.54 146.556 407.54C146.214 407.638 145.888 407.825 145.579 408.102C145.302 408.329 145.009 408.679 144.7 409.151C144.407 409.607 144.147 410.226 143.919 411.007C144.017 412.504 144.065 414.254 144.065 416.256ZM175.486 423.751C175.486 424.711 175.267 425.615 174.827 426.461C174.388 427.307 173.794 428.04 173.045 428.658C172.296 429.277 171.417 429.765 170.408 430.123C169.399 430.481 168.325 430.66 167.186 430.66C166.421 430.66 165.647 430.554 164.866 430.343C164.085 430.131 163.336 429.781 162.62 429.293C161.904 428.805 161.229 428.162 160.594 427.364C159.959 426.567 159.406 425.59 158.934 424.435C158.478 423.279 158.112 421.928 157.835 420.382C157.575 418.819 157.444 417.029 157.444 415.011C157.444 413.106 157.575 411.422 157.835 409.957C158.112 408.492 158.478 407.215 158.934 406.124C159.406 405.034 159.951 404.122 160.569 403.39C161.188 402.641 161.847 402.039 162.547 401.583C163.263 401.111 163.995 400.777 164.744 400.582C165.509 400.387 166.258 400.289 166.99 400.289C168.081 400.289 169.114 400.468 170.091 400.826C171.067 401.168 171.922 401.681 172.654 402.364C173.387 403.048 173.965 403.894 174.388 404.903C174.827 405.896 175.047 407.044 175.047 408.346C175.047 409.518 174.803 410.706 174.314 411.91C173.842 413.098 173.134 414.229 172.19 415.304C171.246 416.362 170.075 417.33 168.675 418.209C167.291 419.072 165.696 419.755 163.89 420.26C163.987 421.269 164.126 422.188 164.305 423.019C164.5 423.849 164.736 424.557 165.013 425.143C165.306 425.729 165.639 426.184 166.014 426.51C166.404 426.835 166.852 426.998 167.356 426.998C167.682 426.982 167.991 426.925 168.284 426.827C168.545 426.746 168.805 426.616 169.065 426.437C169.342 426.257 169.57 425.997 169.749 425.655C169.326 425.46 169 425.208 168.772 424.898C168.545 424.589 168.374 424.296 168.26 424.02C168.13 423.694 168.056 423.352 168.04 422.994C168.04 422.213 168.195 421.578 168.504 421.09C168.813 420.602 169.179 420.219 169.603 419.942C170.026 419.666 170.457 419.479 170.896 419.381C171.336 419.267 171.686 419.21 171.946 419.21C172.223 419.21 172.557 419.267 172.947 419.381C173.354 419.495 173.745 419.715 174.119 420.04C174.493 420.366 174.811 420.829 175.071 421.432C175.348 422.018 175.486 422.791 175.486 423.751ZM169.456 408.395C169.456 407.809 169.399 407.255 169.285 406.734C169.188 406.197 169.033 405.733 168.821 405.343C168.626 404.952 168.374 404.643 168.064 404.415C167.771 404.171 167.43 404.049 167.039 404.049C166.372 404.049 165.826 404.358 165.403 404.977C164.98 405.579 164.638 406.384 164.378 407.394C164.118 408.403 163.938 409.566 163.841 410.885C163.743 412.203 163.694 413.578 163.694 415.011V416.793C164.524 416.354 165.289 415.833 165.989 415.23C166.705 414.628 167.316 413.969 167.82 413.253C168.341 412.521 168.74 411.747 169.017 410.934C169.31 410.12 169.456 409.273 169.456 408.395Z" fill="white"/>
<path d="M188.55 429.21C187.19 429.21 186 428.97 184.98 428.49C183.96 428.01 183.16 427.36 182.58 426.54C182.02 425.72 181.7 424.81 181.62 423.81H183.03C183.19 424.91 183.7 425.89 184.56 426.75C185.44 427.61 186.77 428.04 188.55 428.04C189.59 428.04 190.49 427.85 191.25 427.47C192.03 427.09 192.63 426.57 193.05 425.91C193.47 425.25 193.68 424.52 193.68 423.72C193.68 422.7 193.43 421.89 192.93 421.29C192.45 420.69 191.84 420.24 191.1 419.94C190.38 419.64 189.4 419.32 188.16 418.98C186.8 418.62 185.7 418.26 184.86 417.9C184.04 417.54 183.34 416.99 182.76 416.25C182.2 415.49 181.92 414.46 181.92 413.16C181.92 412.16 182.18 411.25 182.7 410.43C183.24 409.59 184 408.93 184.98 408.45C185.96 407.97 187.09 407.73 188.37 407.73C190.23 407.73 191.73 408.19 192.87 409.11C194.01 410.03 194.69 411.16 194.91 412.5H193.47C193.35 411.96 193.08 411.41 192.66 410.85C192.26 410.29 191.68 409.83 190.92 409.47C190.18 409.09 189.29 408.9 188.25 408.9C186.85 408.9 185.67 409.29 184.71 410.07C183.75 410.83 183.27 411.85 183.27 413.13C183.27 414.15 183.52 414.97 184.02 415.59C184.52 416.19 185.13 416.65 185.85 416.97C186.59 417.27 187.58 417.58 188.82 417.9C190.2 418.28 191.29 418.65 192.09 419.01C192.91 419.35 193.6 419.9 194.16 420.66C194.74 421.4 195.03 422.41 195.03 423.69C195.03 424.63 194.78 425.52 194.28 426.36C193.78 427.2 193.04 427.89 192.06 428.43C191.1 428.95 189.93 429.21 188.55 429.21ZM211.011 423.6H201.021L199.011 429H197.541L205.281 408.42H206.781L214.491 429H213.021L211.011 423.6ZM210.591 422.46L206.031 410.19L201.441 422.46H210.591ZM235.19 414.15C234.59 412.57 233.59 411.31 232.19 410.37C230.81 409.43 229.17 408.96 227.27 408.96C225.61 408.96 224.11 409.35 222.77 410.13C221.43 410.91 220.37 412.02 219.59 413.46C218.81 414.9 218.42 416.58 218.42 418.5C218.42 420.42 218.81 422.1 219.59 423.54C220.37 424.98 221.43 426.09 222.77 426.87C224.11 427.63 225.61 428.01 227.27 428.01C228.87 428.01 230.32 427.65 231.62 426.93C232.92 426.21 233.96 425.19 234.74 423.87C235.52 422.53 235.95 420.97 236.03 419.19H226.64V418.05H237.41V418.95C237.35 420.91 236.88 422.67 236 424.23C235.12 425.79 233.92 427.01 232.4 427.89C230.88 428.77 229.17 429.21 227.27 429.21C225.33 429.21 223.58 428.76 222.02 427.86C220.46 426.94 219.24 425.67 218.36 424.05C217.48 422.41 217.04 420.56 217.04 418.5C217.04 416.42 217.48 414.57 218.36 412.95C219.24 411.31 220.46 410.04 222.02 409.14C223.58 408.22 225.33 407.76 227.27 407.76C229.53 407.76 231.48 408.33 233.12 409.47C234.78 410.59 235.99 412.15 236.75 414.15H235.19ZM253.433 423.6H243.443L241.433 429H239.963L247.703 408.42H249.203L256.913 429H255.443L253.433 423.6ZM253.013 422.46L248.453 410.19L243.863 422.46H253.013Z" fill="#CF0000"/>
</svg>
